<!DOCTYPE svg PUBLIC "-//W3C//DTD SVG 1.1//EN" "http://www.w3.org/Graphics/SVG/1.1/DTD/svg11.dtd">
<svg xmlns="http://www.w3.org/2000/svg" viewBox="0 0 1200 1200">
<path fill="#fcfcfc" stroke="#fcfcfc" d="M375.1 412.489C280.513 433.868 145.09 577.895 144.726 657.5c-.234 51.125 58.428 49.616 133.774-3.44l10-7.042.283 10.991.283 10.991H323v-45l15.75-.017c30.679-.034 45.764-7.104 54.991-25.773l3.759-7.606v-13.552c0-14.362-2.008-21.448-8.212-28.985l-2.003-2.433 7.25-11.067c38.671-59.029 44.829-106.241 15.679-120.19-7.08-3.388-24.365-4.317-35.114-1.888m12.4 18.213c-77.209 8.915-209.009 138.381-222.58 218.639-3.096 18.305 1.688 25.654 16.702 25.657 24.672.006 65.154-20.088 105.984-52.608 1.155-.921 1.394-8.933 1.394-46.829v-45.718l35.25.397c29.955.337 36.042.656 40.522 2.123 6.549 2.146 6.107 2.452 14.031-9.742 23.135-35.606 35.588-74.218 27.779-86.136-2.837-4.33-10.79-6.74-19.082-5.783M746 529.498c-28.561 6.429-43.839 30.074-35.413 54.805 4.775 14.012 18.578 22.06 48.413 28.23 23.666 4.894 31.708 11.396 26.515 21.438-3.071 5.939-10.463 9.112-21.309 9.146-13.853.044-21.661-4.643-25.21-15.131l-1.856-5.486-15.57-.275-15.57-.276v5.344c0 19.539 13.739 35.335 36 41.391 10.215 2.779 33.956 2.506 44.47-.511 22.531-6.466 33.53-20.027 33.53-41.34 0-24.086-11.964-33.648-53-42.356-19.206-4.077-26.191-8.777-24.498-16.485 1.678-7.643 9.561-12.248 20.998-12.268 11.391-.02 19.011 4.886 21.522 13.856l1.238 4.42h31.018l-.539-5.75c-1.635-17.431-13.657-31.623-31.667-37.381-8.681-2.775-29.577-3.509-39.072-1.371m-316.531 1.728c-.268.701-.37 31.874-.228 69.274l.259 68 47.75.26 47.75.259V640H464.017l-.258-54.75-.259-54.75-16.772-.274c-12.87-.211-16.885.022-17.259 1m125.916.212c-.303.791-.375 23.178-.159 49.75.371 45.73.503 48.646 2.477 54.56 7.521 22.531 27.311 34.744 56.297 34.744 29.832 0 50.323-13.383 56.639-36.992 1.03-3.851 1.34-16.319 1.349-54.25L672 530h-33v45.757c0 26.792-.405 47.168-.977 49.163-5.845 20.381-36.928 22.958-46.45 3.851L589 623.607V530h-16.531c-13.455 0-16.634.268-17.084 1.438M911 599.498v69.652l37.25-.389c40.293-.421 41.505-.568 53.161-6.471 27.356-13.853 25.256-56.645-3.185-64.913l-5.402-1.57 5.338-2.464c23.437-10.819 23.949-43.944.87-56.245-11.61-6.188-13.057-6.377-52.282-6.835l-35.75-.418v69.653m33-28.626V586l13.25-.002c18.165-.002 24.75-3.792 24.75-14.245 0-11.453-5.461-14.971-24.17-15.568l-13.83-.441v15.128m-621 3.189v16.345l4.087-3.953c7.209-6.974 24.198-26.502 23.587-27.112-.325-.325-6.685-.824-14.132-1.108L323 557.716v16.345m35.5 7.586c-3.3 3.761-7.514 8.528-9.364 10.593l-3.365 3.756 3.365-.63c9.03-1.689 16.311-9.54 15.678-16.907l-.314-3.649-6 6.837M944 626.41V642l15.25-.002c12.523-.001 15.872-.314 18.73-1.75 10.726-5.388 10.735-20.397.017-26.694-3.027-1.778-5.545-2.1-18.747-2.394l-15.25-.339v15.589" fill-rule="evenodd"/>
<path fill="#e0e1e1" stroke="#e0e1e1" d="M376.988 412.478C285.017 429.905 145 577.956 145 657.776c0 50.638 59.402 48.677 133.813-4.417 5.672-4.048 10.51-7.359 10.75-7.359.24 0 .437 5.175.437 11.5V669h33v-44.756l18.25-.49c21.219-.57 27.607-2.091 37.926-9.027 13.288-8.931 18.245-19.176 18.253-37.727.006-13.814-1.238-18.501-7.216-27.19l-3.097-4.501 5.277-7.905c52.877-79.212 45.81-136.525-15.405-124.926m2.978 18.954c-57.777 12.043-144.603 84.258-190.196 158.19-22.021 35.71-31.459 70.275-22.195 81.285 12.083 14.36 65.795-5.942 113.175-42.779l9.25-7.191V530l29.75.02c29.776.02 39.562.719 47.287 3.381l4.125 1.421 6.322-9.661c28.704-43.864 39.921-85.212 25.183-92.833-4.19-2.167-14.627-2.579-22.701-.896m369.797 97.533c-27.907 5.101-44.437 24.539-40.71 47.87 3.077 19.255 14.985 27.966 47.947 35.07 24.142 5.204 29.5 8.311 29.5 17.11 0 20.964-44.767 18.931-48.143-2.187l-.613-3.828H706v3.79c0 26.604 22.404 43.586 57.5 43.586 27.052 0 44.419-8.311 52.759-25.248 4.56-9.262 4.85-26.579.58-34.668-6.686-12.668-17.591-18.598-45.271-24.621-24.104-5.244-30.36-8.896-29.263-17.078.711-5.297 2.851-8.175 7.893-10.611 14.114-6.822 31.653-1.214 34.967 11.178l1.25 4.672H817l-.012-3.25c-.065-17.958-13.621-33.991-33.988-40.202-6.373-1.944-26.12-2.884-33.237-1.583M430 599.5V669h94v-29h-61V530h-33v69.5m126-20.105c0 46.869.104 49.731 2.037 55.99 15.037 48.683 100.808 46.797 112.422-2.472 1.238-5.253 1.514-15.144 1.526-54.688L672 529.95l-16.25.275-16.25.275-.5 47.5c-.495 47.045-.522 47.541-2.777 51.763-8.226 15.401-33.149 16.383-43.455 1.713-4.261-6.066-4.756-12.164-4.762-58.726L588 530h-32v49.395m355 20.11v69.698l36.75-.475c45.401-.587 49.784-1.499 61.802-12.866 14.149-13.381 15.014-37.082 1.835-50.244-3.835-3.83-12.388-8.589-15.47-8.608-3.507-.022-2.508-1.374 3.078-4.166 23.055-11.52 22.095-44.554-1.646-56.666-9.702-4.95-13.746-5.417-51.099-5.908l-35.25-.462v69.697M944 571v15h13.54c19.192 0 24.466-3.268 24.456-15.151-.009-10.959-6.541-14.795-25.246-14.827L944 556v15m-621 3.465v16.466l8.365-8.716c4.601-4.793 11.108-11.865 14.461-15.715 7.334-8.422 7.547-8.253-10.576-8.4L323 558v16.465m41 .257c-.275.672-4.694 5.734-9.82 11.25-9.503 10.225-9.687 10.838-2.68 8.924 8.712-2.379 13.896-9.099 13.303-17.24-.167-2.286-.528-3.606-.803-2.934m580 52.297v16.195l15.25-.396c20.616-.535 25.625-3.266 26.555-14.477 1.092-13.167-4.285-16.712-26.055-17.179l-15.75-.338v16.195" fill-rule="evenodd"/>
<path fill="#648c9c" stroke="#648c9c" d="M382.472 412.042C310.75 421.421 194.37 524.491 156.693 612c-37.987 88.227 21.092 109.842 118.556 43.376 7.562-5.157 13.975-9.376 14.25-9.376.276 0 .501 4.95.501 11v11h33V624.273l17.25-.548c18.529-.588 24.914-1.788 34.516-6.483 24.459-11.96 30.81-46.037 13.107-70.328-.941-1.29-.232-2.965 3.806-9 45.05-67.316 48.234-120.019 7.606-125.893-7.568-1.095-8.289-1.094-16.813.021m-7.972 20.397C298.064 452.317 187.008 563.423 166.031 641c-7.715 28.531.927 38.933 27.761 33.415 23.081-4.746 63.518-26.384 89.458-47.868l6.75-5.591V531l33.75.058c29.002.049 34.71.308 40.574 1.836l6.823 1.779 2.35-3.086c15.87-20.852 32.876-57.693 35.354-76.587 2.994-22.829-7.307-29.594-34.351-22.561M754 528.655c-20.169 2.675-34.461 11.411-41.259 25.219-4.407 8.952-4.785 24.488-.793 32.6 6.627 13.469 17.801 19.477 48.139 25.883 19.583 4.136 26.917 8.624 26.909 16.47-.018 18.242-37.978 20.85-46.969 3.226-1.115-2.185-2.027-5.116-2.027-6.513V623h-32v2.951c0 27.067 22.306 44.222 57.5 44.222 36.038 0 56-15.371 56-43.121 0-23.23-10.972-32.85-46.345-40.634-26.477-5.826-31.163-8.398-31.151-17.102.025-18.679 40.04-18.591 43.545.096l.674 3.588h30.965l-.72-5.23c-2.607-18.961-14.844-32.01-34.9-37.215-6.252-1.623-21.653-2.685-27.568-1.9M430 599.5V668h94v-28h-61V531h-33v68.5m126-21.049c0 51.118.233 53.992 5.214 64.248 8.485 17.472 27.635 27.419 52.786 27.419 30.042 0 50.758-14.021 56.46-38.211 1.234-5.235 1.513-15.049 1.525-53.657L672 531h-31.89l-.306 46.25c-.347 52.385-.208 51.415-8.36 58.59-12.404 10.919-32.985 7.282-40.728-7.197-2.184-4.083-2.22-4.822-2.512-50.893l-.296-46.75H556v47.451M911 599.5V668l35.75-.015c39.58-.016 43.798-.495 54.47-6.183 15.806-8.425 23.17-27.874 17.097-45.16-3.349-9.53-15.959-19.642-24.495-19.642-3.042 0-2.045-1.518 1.928-2.938 21.139-7.553 26.801-36.49 10.094-51.584C994.698 532.409 987.215 531 944.864 531H911v68.5m32.224-28.322.276 15.322 14.031-.03c15.788-.034 19.195-1.125 22.799-7.295 2.568-4.398 2.555-12.513-.026-15.97-4.614-6.18-6.202-6.678-22.4-7.027l-14.957-.323.277 15.323M323.03 574.75l.031 16.75 7.22-7.5c3.972-4.125 10.553-11.295 14.625-15.932 8.889-10.124 9.097-9.897-9.156-9.998L323 558l.03 16.75m31.635 10.317c-9.157 10.276-9.575 10.932-6.954 10.911 7.105-.056 15.243-6.549 17.245-13.759 2.857-10.287.942-9.757-10.291 2.848M943 627.069v16.069l15.75-.319c21.691-.439 27.635-3.842 27.635-15.819 0-12.254-6.579-16-28.097-16H943v16.069" fill-rule="evenodd"/>
<path fill="#4c4c4c" stroke="#4c4c4c" d="M744.916 530.522c-23.304 5.659-37.059 22.192-35.689 42.899 1.361 20.565 13.409 30.282 46.748 37.705 25.17 5.604 31.298 9.153 31.298 18.126 0 9.253-8.158 14.248-23.273 14.248-14.039 0-23.591-5.328-25.578-14.268-1.5-6.743-.099-6.232-17.083-6.232h-15.527l.661 5.25C709.948 655.862 729.259 670 763.5 670c37.008 0 59.107-18.83 56.013-47.725-2.152-20.092-13.613-28.433-50.013-36.398-22.56-4.937-27.5-7.924-27.5-16.63 0-14.019 26.359-19.824 38.339-8.444 3.37 3.201 5.661 7.308 5.661 10.147 0 1.978.542 2.05 15.437 2.05h15.437l-.526-3.75c-2.904-20.7-15.024-33.896-35.588-38.744-7.84-1.849-28.201-1.839-35.844.016M290 599.5V668h33v-45h16.79c23.743 0 34.07-3.026 44.729-13.106 20.957-19.821 16.103-59.917-8.779-72.526-11.165-5.657-17.068-6.368-52.9-6.368H290v68.5m140 0V668h94v-28h-61V531h-33v68.5m126.017-21.75c.019 50.815.391 55.201 5.535 65.353 17.28 34.1 81.494 36.551 102.439 3.911 7.337-11.434 7.389-11.876 7.787-66.764l.357-49.25h-32.06l-.288 46.75c-.319 51.976-.094 50.232-7.436 57.66-9.544 9.655-27.799 9.237-37.607-.861-6.657-6.855-6.744-7.605-6.744-58.227V531h-32l.017 46.75M911 599.5V668l34.75-.017c37.61-.019 43.993-.666 53.763-5.446 29.573-14.468 26.165-61.062-4.766-65.165-5.482-.727-5.266-1.299 1.42-3.758 12.339-4.537 18.333-13.73 18.333-28.114 0-11.665-2.665-18.075-9.971-23.99-11.553-9.351-18.134-10.51-59.689-10.51H911v68.5m32-27.906v15.594l14.25-.344c15.474-.374 18.838-1.389 22.969-6.931 4.993-6.699 2.345-18.054-5.095-21.85-3.517-1.794-5.874-2.063-18.084-2.063H943v15.594M323 577v19h14.184c12.411 0 14.732-.265 18.566-2.121 11.294-5.467 13.554-22.397 4.057-30.388-5.559-4.678-9.029-5.491-23.429-5.491H323v19m620 49.5V643l15.25-.022c20.204-.029 26.505-2.827 28.335-12.579 2.68-14.287-6.649-20.399-31.134-20.399H943v16.5" fill-rule="evenodd"/>
</svg>