<svg xmlns="http://www.w3.org/2000/svg" xmlns:xlink="http://www.w3.org/1999/xlink" width="851" zoomAndPan="magnify" viewBox="0 0 638.25 236.249991" height="315" preserveAspectRatio="xMidYMid meet" version="1.0"><defs><clipPath id="e0ea4b9ee2"><path d="M 0.636719 8 L 636.867188 8 L 636.867188 221 L 0.636719 221 Z M 0.636719 8 " clip-rule="nonzero"/></clipPath><clipPath id="f74d46c91c"><path d="M 0.636719 8 L 636.867188 8 L 636.867188 220 L 0.636719 220 Z M 0.636719 8 " clip-rule="nonzero"/></clipPath><clipPath id="059cf34326"><path d="M 0.636719 8 L 636 8 L 636 220 L 0.636719 220 Z M 0.636719 8 " clip-rule="nonzero"/></clipPath></defs><path fill="#fcfcfc" d="M 168.722656 13.394531 C 100.835938 28.738281 3.640625 132.109375 3.378906 189.242188 C 3.210938 225.9375 45.3125 224.855469 99.390625 186.773438 L 106.570312 181.722656 L 106.976562 197.496094 L 131.328125 197.496094 L 131.328125 165.199219 L 142.632812 165.1875 C 164.652344 165.164062 175.480469 160.089844 182.101562 146.691406 L 184.800781 141.230469 L 184.800781 131.503906 C 184.800781 121.195312 183.359375 116.109375 178.90625 110.703125 L 177.46875 108.957031 L 182.671875 101.011719 C 210.425781 58.644531 214.847656 24.761719 193.925781 14.75 C 188.84375 12.316406 176.4375 11.652344 168.722656 13.394531 M 177.621094 26.464844 C 122.207031 32.863281 27.613281 125.785156 17.871094 183.386719 C 15.652344 196.527344 19.085938 201.800781 29.859375 201.800781 C 47.566406 201.808594 76.621094 187.386719 105.925781 164.042969 C 106.753906 163.382812 106.925781 157.632812 106.925781 130.433594 L 106.925781 97.621094 L 132.226562 97.90625 C 153.726562 98.148438 158.09375 98.378906 161.3125 99.429688 C 166.011719 100.96875 165.695312 101.191406 171.382812 92.4375 C 187.984375 66.882812 196.921875 39.171875 191.320312 30.617188 C 189.28125 27.507812 183.574219 25.78125 177.621094 26.464844 M 434.925781 97.375 C 414.425781 101.988281 403.460938 118.957031 409.507812 136.707031 C 412.9375 146.765625 422.84375 152.542969 444.257812 156.96875 C 461.242188 160.484375 467.015625 165.148438 463.285156 172.355469 C 461.082031 176.621094 455.777344 178.898438 447.992188 178.921875 C 438.050781 178.953125 432.445312 175.589844 429.898438 168.0625 L 428.566406 164.125 L 417.390625 163.925781 L 406.21875 163.726562 L 406.21875 167.5625 C 406.21875 181.585938 416.078125 192.925781 432.054688 197.269531 C 439.386719 199.265625 456.425781 199.070312 463.972656 196.902344 C 480.144531 192.261719 488.039062 182.53125 488.039062 167.234375 C 488.039062 149.945312 479.449219 143.082031 450 136.832031 C 436.214844 133.90625 431.199219 130.535156 432.414062 125.003906 C 433.621094 119.515625 439.277344 116.210938 447.484375 116.195312 C 455.660156 116.183594 461.128906 119.703125 462.933594 126.140625 L 463.820312 129.3125 L 486.082031 129.3125 L 485.695312 125.1875 C 484.523438 112.675781 475.894531 102.492188 462.96875 98.359375 C 456.738281 96.367188 441.742188 95.839844 434.925781 97.375 M 207.746094 98.613281 C 207.550781 99.117188 207.480469 121.492188 207.582031 148.332031 L 207.765625 197.140625 L 242.039062 197.324219 L 276.308594 197.511719 L 276.308594 176.683594 L 232.539062 176.683594 L 232.355469 137.386719 L 232.167969 98.09375 L 220.132812 97.898438 C 210.894531 97.746094 208.011719 97.914062 207.746094 98.613281 M 298.117188 98.765625 C 297.898438 99.335938 297.847656 115.402344 298.003906 134.472656 C 298.269531 167.292969 298.363281 169.386719 299.78125 173.632812 C 305.179688 189.804688 319.382812 198.570312 340.1875 198.570312 C 361.597656 198.570312 376.304688 188.964844 380.839844 172.019531 C 381.578125 169.253906 381.800781 160.304688 381.804688 133.082031 L 381.816406 97.734375 L 358.128906 97.734375 L 358.128906 130.574219 C 358.128906 149.804688 357.839844 164.429688 357.429688 165.859375 C 353.234375 180.488281 330.925781 182.339844 324.089844 168.625 L 322.242188 164.917969 L 322.242188 97.734375 L 310.378906 97.734375 C 300.722656 97.734375 298.441406 97.925781 298.117188 98.765625 M 553.351562 147.613281 L 553.351562 197.605469 L 580.085938 197.328125 C 609.003906 197.023438 609.875 196.917969 618.238281 192.683594 C 637.875 182.738281 636.367188 152.027344 615.953125 146.09375 L 612.078125 144.964844 L 615.910156 143.195312 C 632.730469 135.433594 633.097656 111.65625 616.53125 102.828125 C 608.199219 98.386719 607.160156 98.25 579.007812 97.921875 L 553.351562 97.625 L 553.351562 147.613281 M 577.035156 127.070312 L 577.035156 137.925781 L 586.542969 137.925781 C 599.582031 137.925781 604.308594 135.203125 604.308594 127.703125 C 604.308594 119.480469 600.390625 116.957031 586.960938 116.527344 L 577.035156 116.210938 L 577.035156 127.070312 M 131.328125 129.359375 L 131.328125 141.089844 L 134.261719 138.253906 C 139.4375 133.246094 151.628906 119.230469 151.191406 118.792969 C 150.957031 118.558594 146.394531 118.203125 141.050781 117.996094 L 131.328125 117.625 L 131.328125 129.359375 M 156.808594 134.800781 C 154.441406 137.503906 151.417969 140.921875 150.089844 142.40625 L 147.671875 145.101562 L 150.089844 144.648438 C 156.570312 143.4375 161.796875 137.800781 161.339844 132.515625 L 161.117188 129.894531 L 156.808594 134.800781 M 577.035156 166.929688 L 577.035156 178.121094 L 587.980469 178.117188 C 596.96875 178.117188 599.371094 177.890625 601.421875 176.863281 C 609.121094 172.996094 609.128906 162.222656 601.433594 157.703125 C 599.261719 156.425781 597.457031 156.195312 587.980469 155.984375 L 577.035156 155.742188 L 577.035156 166.929688 " fill-opacity="1" fill-rule="evenodd"/><g clip-path="url(#e0ea4b9ee2)"><path stroke-linecap="butt" transform="matrix(0.717721, 0, 0, 0.717721, -100.494096, -282.657904)" fill="none" stroke-linejoin="miter" d="M 375.099208 412.489316 C 280.512767 433.867735 145.090716 577.894491 144.726064 657.497534 C 144.492033 708.625046 203.152063 707.117453 278.499016 654.057829 L 288.502461 647.020585 L 289.068489 668.997686 L 322.997476 668.997686 L 322.997476 623.998509 L 338.748276 623.982182 C 369.428049 623.949526 384.514856 616.879627 393.740014 598.211608 L 397.50083 590.602894 L 397.50083 577.050892 C 397.50083 562.687947 395.492521 555.60172 389.287991 548.069202 L 387.285124 545.636372 L 394.534629 534.566183 C 433.204096 475.536058 439.365086 428.327197 410.214676 414.377888 C 403.133891 410.987166 385.848286 410.061929 375.099208 412.489316 M 387.497385 430.700158 C 310.289073 439.61509 178.491774 569.082968 164.918002 649.33912 C 161.826622 667.647929 166.610641 674.995399 181.621252 674.995399 C 206.292426 675.006285 246.774269 654.912313 287.604437 622.387508 C 288.758262 621.467714 288.997735 613.456249 288.997735 575.559628 L 288.997735 529.842031 L 324.249267 530.239339 C 354.205178 530.576778 360.289972 530.89789 364.774651 532.361942 C 371.322064 534.506315 370.881216 534.816541 378.805599 522.61974 C 401.936526 487.01444 414.389128 448.404842 406.584481 436.485611 C 403.743459 432.153325 395.791863 429.747708 387.497385 430.700158 M 745.999535 529.499149 C 717.436923 535.926826 702.159626 559.569354 710.584726 584.300397 C 715.363303 598.315017 729.165663 606.364579 759.001837 612.531012 C 782.666136 617.429326 790.710256 623.927756 785.512601 633.969299 C 782.442991 639.912587 775.051979 643.085606 764.204935 643.118261 C 750.353592 643.161802 742.543503 638.475748 738.994946 627.987914 L 737.13903 622.501802 L 721.567834 622.224231 L 706.002081 621.94666 L 706.002081 627.291265 C 706.002081 646.830095 719.73913 662.629878 741.999246 668.682017 C 752.214951 671.463171 775.955446 671.191042 786.470493 668.170415 C 809.002737 661.704641 820.002173 648.147197 820.002173 626.834089 C 820.002173 602.74527 808.033959 593.182672 767.002417 584.474559 C 747.795584 580.398073 740.807323 575.701134 742.499962 567.994454 C 744.181717 560.347642 752.062559 555.743227 763.497401 555.721456 C 774.888702 555.705129 782.508301 560.608885 785.022769 569.578242 L 786.258233 573.99761 L 817.275445 573.99761 L 816.73663 568.250255 C 815.103859 550.8177 803.08122 536.628917 785.071752 530.870677 C 776.390852 528.094966 755.496822 527.360219 745.999535 529.499149 M 429.470492 531.224444 C 429.198364 531.926536 429.100397 563.101583 429.241904 600.497488 L 429.497705 668.502412 L 477.250823 668.758213 L 524.998498 669.019457 L 524.998498 639.999668 L 464.01449 639.999668 L 463.758689 585.247404 L 463.497446 530.500582 L 446.728885 530.228454 C 433.857204 530.016194 429.840587 530.250224 429.470492 531.224444 M 555.384372 531.436705 C 555.079588 532.23132 555.008834 554.616614 555.226537 581.187246 C 555.596632 626.915727 555.727254 629.832945 557.702907 635.74902 C 565.22454 658.281264 585.013728 670.494393 614.000861 670.494393 C 643.831593 670.494393 664.322873 657.111111 670.641697 633.501238 C 671.670343 629.647898 671.98057 617.178968 671.986012 579.249691 L 672.00234 529.999866 L 638.99859 529.999866 L 638.99859 575.75556 C 638.99859 602.549337 638.595839 622.926323 638.02437 624.918304 C 632.179048 645.300732 601.096525 647.880511 591.572026 628.771644 L 588.99769 623.606644 L 588.99769 529.999866 L 572.468602 529.999866 C 559.014567 529.999866 555.836105 530.266552 555.384372 531.436705 M 911.00196 599.496055 L 911.00196 669.150078 L 948.250915 668.763656 C 988.542268 668.339135 989.755962 668.192186 1001.408506 662.292439 C 1028.768311 648.435653 1026.667478 605.64616 998.224602 597.378895 L 992.825572 595.805992 L 998.164734 593.340507 C 1021.600445 582.526118 1022.112046 549.397189 999.030103 537.096978 C 987.421099 530.908775 985.973375 530.718285 946.748766 530.261109 L 911.00196 529.847474 L 911.00196 599.496055 M 944.000268 570.873574 L 944.000268 585.998479 L 957.247485 585.998479 C 975.414787 585.998479 982.000298 582.205007 982.000298 571.755271 C 982.000298 560.298659 976.541399 556.782758 957.82984 556.184075 L 944.000268 555.743227 L 944.000268 570.873574 M 322.997476 574.062921 L 322.997476 590.406961 L 327.084847 586.455655 C 334.296253 579.478279 351.282517 559.950334 350.672949 559.340766 C 350.346395 559.014212 343.989472 558.518938 336.544035 558.230482 L 322.997476 557.713437 L 322.997476 574.062921 M 358.499367 581.644422 C 355.201169 585.410681 350.988619 590.172931 349.138144 592.241108 L 345.769193 595.996482 L 349.138144 595.365143 C 358.16737 593.677946 365.44953 585.824316 364.812749 578.460518 L 364.502522 574.808553 L 358.499367 581.644422 M 944.000268 626.409568 L 944.000268 642.002534 L 959.250351 641.997092 C 971.773707 641.997092 975.120888 641.681422 977.978238 640.250026 C 988.705546 634.861881 988.716431 619.85127 977.994566 613.554216 C 974.968496 611.774495 972.454029 611.453383 959.250351 611.159484 L 944.000268 610.822045 L 944.000268 626.409568 " stroke="#fcfcfc" stroke-width="1" stroke-opacity="1" stroke-miterlimit="4"/></g><path fill="#e0e1e1" d="M 170.078125 13.386719 C 104.070312 25.894531 3.574219 132.152344 3.574219 189.441406 C 3.574219 225.785156 46.210938 224.378906 99.617188 186.273438 C 103.6875 183.367188 107.160156 180.988281 107.332031 180.988281 C 107.503906 180.988281 107.644531 184.703125 107.644531 189.242188 L 107.644531 197.496094 L 131.328125 197.496094 L 131.328125 165.375 L 144.429688 165.023438 C 159.65625 164.613281 164.242188 163.523438 171.648438 158.542969 C 181.1875 152.136719 184.742188 144.78125 184.75 131.46875 C 184.753906 121.554688 183.859375 118.1875 179.570312 111.953125 L 177.347656 108.722656 L 181.132812 103.046875 C 219.085938 46.195312 214.011719 5.0625 170.078125 13.386719 M 172.214844 26.988281 C 130.746094 35.632812 68.429688 87.464844 35.707031 140.527344 C 19.902344 166.15625 13.128906 190.964844 19.777344 198.867188 C 28.449219 209.171875 67 194.601562 101.007812 168.164062 L 107.644531 163.003906 L 107.644531 97.734375 L 128.996094 97.75 C 150.367188 97.761719 157.390625 98.265625 162.9375 100.175781 L 165.898438 101.195312 L 170.433594 94.261719 C 191.035156 62.777344 199.085938 33.101562 188.507812 27.632812 C 185.5 26.078125 178.011719 25.78125 172.214844 26.988281 M 437.625 96.992188 C 417.597656 100.652344 405.734375 114.605469 408.410156 131.347656 C 410.617188 145.167969 419.164062 151.421875 442.820312 156.519531 C 460.148438 160.253906 463.992188 162.484375 463.992188 168.800781 C 463.992188 183.847656 431.863281 182.386719 429.441406 167.230469 L 429 164.484375 L 406.21875 164.484375 L 406.21875 167.203125 C 406.21875 186.296875 422.296875 198.484375 447.484375 198.484375 C 466.902344 198.484375 479.367188 192.519531 485.351562 180.363281 C 488.625 173.714844 488.832031 161.289062 485.769531 155.480469 C 480.96875 146.390625 473.144531 142.132812 453.277344 137.8125 C 435.976562 134.046875 431.488281 131.425781 432.273438 125.554688 C 432.785156 121.753906 434.320312 119.6875 437.9375 117.9375 C 448.070312 113.042969 460.65625 117.066406 463.035156 125.960938 L 463.933594 129.3125 L 485.882812 129.3125 L 485.875 126.980469 C 485.828125 114.09375 476.101562 102.585938 461.480469 98.128906 C 456.90625 96.734375 442.734375 96.058594 437.625 96.992188 M 208.125 147.617188 L 208.125 197.496094 L 275.59375 197.496094 L 275.59375 176.683594 L 231.8125 176.683594 L 231.8125 97.734375 L 208.125 97.734375 L 208.125 147.617188 M 298.558594 133.1875 C 298.558594 166.824219 298.632812 168.878906 300.019531 173.371094 C 310.8125 208.3125 372.375 206.957031 380.707031 171.597656 C 381.597656 167.828125 381.796875 160.726562 381.804688 132.347656 L 381.816406 97.699219 L 370.152344 97.894531 L 358.488281 98.09375 L 358.128906 132.183594 C 357.773438 165.949219 357.753906 166.304688 356.136719 169.335938 C 350.234375 180.390625 332.34375 181.09375 324.949219 170.566406 C 321.890625 166.210938 321.535156 161.835938 321.53125 128.417969 L 321.527344 97.734375 L 298.558594 97.734375 L 298.558594 133.1875 M 553.351562 147.621094 L 553.351562 197.644531 L 579.726562 197.300781 C 612.3125 196.882812 615.457031 196.226562 624.082031 188.066406 C 634.238281 178.464844 634.859375 161.453125 625.398438 152.007812 C 622.648438 149.257812 616.507812 145.84375 614.296875 145.828125 C 611.78125 145.8125 612.496094 144.84375 616.507812 142.839844 C 633.054688 134.570312 632.363281 110.863281 615.324219 102.167969 C 608.363281 98.617188 605.457031 98.28125 578.648438 97.929688 L 553.351562 97.597656 L 553.351562 147.621094 M 577.035156 127.160156 L 577.035156 137.925781 L 586.753906 137.925781 C 600.527344 137.925781 604.3125 135.582031 604.304688 127.050781 C 604.300781 119.1875 599.609375 116.433594 586.1875 116.410156 L 577.035156 116.394531 L 577.035156 127.160156 M 131.328125 129.648438 L 131.328125 141.464844 L 137.332031 135.210938 C 140.636719 131.769531 145.304688 126.695312 147.710938 123.929688 C 152.976562 117.886719 153.128906 118.007812 140.121094 117.902344 L 131.328125 117.832031 L 131.328125 129.648438 M 160.757812 129.832031 C 160.558594 130.316406 157.386719 133.949219 153.707031 137.90625 C 146.886719 145.246094 146.757812 145.683594 151.785156 144.3125 C 158.039062 142.605469 161.757812 137.78125 161.332031 131.9375 C 161.214844 130.296875 160.953125 129.351562 160.757812 129.832031 M 577.035156 167.367188 L 577.035156 178.992188 L 587.980469 178.707031 C 602.777344 178.324219 606.371094 176.363281 607.039062 168.316406 C 607.824219 158.867188 603.964844 156.320312 588.339844 155.984375 L 577.035156 155.742188 L 577.035156 167.367188 " fill-opacity="1" fill-rule="evenodd"/><g clip-path="url(#f74d46c91c)"><path stroke-linecap="butt" transform="matrix(0.717721, 0, 0, 0.717721, -100.494096, -282.657904)" fill="none" stroke-linejoin="miter" d="M 376.98778 412.478431 C 285.019216 429.905543 144.998192 577.954359 144.998192 657.775105 C 144.998192 708.412785 204.403854 706.45346 278.814685 653.36118 C 284.485844 649.311907 289.324289 645.997381 289.563762 645.997381 C 289.803236 645.997381 289.999168 651.173266 289.999168 657.497534 L 289.999168 668.997686 L 322.997476 668.997686 L 322.997476 624.243425 L 341.251859 623.753594 C 362.467001 623.182124 368.856579 621.663646 379.175694 614.724368 C 392.466452 605.798552 397.419192 595.550191 397.430077 577.001909 C 397.435519 563.188664 396.189171 558.497168 390.213228 549.810824 L 387.116405 545.309818 L 392.390256 537.401762 C 445.270276 458.190584 438.200376 400.880312 376.98778 412.478431 M 379.964866 431.429463 C 322.186533 443.473872 235.361198 515.691347 189.768781 589.623231 C 167.748139 625.331939 158.310721 659.897708 167.573977 670.908029 C 179.656484 685.265531 233.369217 664.964741 280.75224 628.129421 L 289.999168 620.939784 L 289.999168 529.999866 L 319.748261 530.021636 C 349.524567 530.037964 359.31031 530.740056 367.03876 533.401473 L 371.164229 534.821984 L 377.483054 525.16142 C 406.187173 481.294298 417.404312 439.947086 402.66583 432.327487 C 398.47505 430.161344 388.041642 429.747708 379.964866 431.429463 M 749.760352 528.965777 C 721.85629 534.065466 705.327202 553.50633 709.055363 576.833189 C 712.130416 596.089005 724.038761 604.802562 756.998971 611.905117 C 781.142216 617.108214 786.497706 620.215923 786.497706 629.01656 C 786.497706 649.981343 741.73256 647.945822 738.358166 626.828646 L 737.743155 623.002519 L 706.002081 623.002519 L 706.002081 626.790548 C 706.002081 653.393835 728.403703 670.374657 763.497401 670.374657 C 790.552421 670.374657 807.919665 662.063851 816.257684 645.12657 C 820.818558 635.863314 821.107015 618.550496 816.840039 610.457393 C 810.151119 597.79253 799.24965 591.860128 771.568734 585.840644 C 747.463587 580.594006 741.210073 576.942041 742.30403 568.761856 C 743.017006 563.466235 745.155937 560.587115 750.195757 558.148843 C 764.313787 551.329302 781.84975 556.93515 785.164276 569.327884 L 786.416067 573.99761 L 816.997874 573.99761 L 816.986989 570.748395 C 816.921678 552.793353 803.369676 536.759539 782.998133 530.549566 C 776.624882 528.606568 756.879235 527.665003 749.760352 528.965777 M 429.998421 599.501497 L 429.998421 668.997686 L 524.002507 668.997686 L 524.002507 639.999668 L 463.002172 639.999668 L 463.002172 529.999866 L 429.998421 529.999866 L 429.998421 599.501497 M 555.999382 579.39664 C 555.999382 626.262619 556.102791 629.125411 558.034904 635.384368 C 573.072727 684.068165 658.847646 682.179593 670.45665 632.913441 C 671.697556 627.66136 671.975127 617.766766 671.986012 578.226487 L 672.00234 529.950883 L 655.750823 530.223011 L 639.499306 530.500582 L 638.99859 577.997899 C 638.503316 625.043483 638.476103 625.538757 636.222879 629.762192 C 627.999154 645.164668 603.072179 646.144331 592.769392 631.476602 C 588.507859 625.408135 588.012585 619.312456 588.007142 572.751261 L 588.0017 529.999866 L 555.999382 529.999866 L 555.999382 579.39664 M 911.00196 599.50694 L 911.00196 669.204504 L 947.750199 668.725558 C 993.152126 668.143203 997.533396 667.228851 1009.550592 655.85932 C 1023.701277 642.48148 1024.566646 618.779084 1011.384739 605.618947 C 1007.553169 601.787377 998.997447 597.03057 995.916952 597.0088 C 992.411936 596.98703 993.407927 595.637272 998.997447 592.845233 C 1022.052178 581.32331 1021.088843 548.292347 997.348348 536.177184 C 987.649687 531.229887 983.600414 530.761826 946.248049 530.271994 L 911.00196 529.809376 L 911.00196 599.50694 M 944.000268 570.998753 L 944.000268 585.998479 L 957.541384 585.998479 C 976.731889 585.998479 982.005741 582.732936 981.994856 570.846361 C 981.989413 559.890466 975.452885 556.053453 956.752211 556.020798 L 944.000268 555.999028 L 944.000268 570.998753 M 322.997476 574.465671 L 322.997476 590.929448 L 331.362708 582.215892 C 335.967123 577.420987 342.470995 570.351087 345.823619 566.497747 C 353.160204 558.07809 353.372465 558.246809 335.248703 558.09986 L 322.997476 558.001894 L 322.997476 574.465671 M 364.001806 574.721472 C 363.724235 575.39635 359.304867 580.457942 354.177965 585.971266 C 344.675236 596.197857 344.495631 596.807425 351.50022 594.897082 C 360.213776 592.518679 365.395104 585.797104 364.801864 577.655017 C 364.638587 575.369138 364.273934 574.052035 364.001806 574.721472 M 944.000268 627.019136 L 944.000268 643.216227 L 959.250351 642.81892 C 979.86681 642.285548 984.873976 639.553377 985.804655 628.341681 C 986.898612 615.176102 981.521352 611.627546 959.751068 611.159484 L 944.000268 610.822045 L 944.000268 627.019136 " stroke="#e0e1e1" stroke-width="1" stroke-opacity="1" stroke-miterlimit="4"/></g><path fill="#648c9c" d="M 174.015625 13.074219 C 122.539062 19.804688 39.007812 93.78125 11.96875 156.585938 C -15.296875 219.910156 27.105469 235.421875 97.058594 187.71875 C 102.484375 184.019531 107.089844 180.988281 107.285156 180.988281 C 107.484375 180.988281 107.644531 184.542969 107.644531 188.886719 L 107.644531 196.78125 L 131.328125 196.78125 L 131.328125 165.394531 L 143.710938 165.003906 C 157.007812 164.582031 161.59375 163.71875 168.484375 160.351562 C 186.039062 151.765625 190.597656 127.308594 177.890625 109.875 C 177.214844 108.949219 177.722656 107.746094 180.621094 103.414062 C 212.957031 55.101562 215.242188 17.273438 186.082031 13.058594 C 180.648438 12.273438 180.132812 12.273438 174.015625 13.074219 M 168.292969 27.714844 C 113.433594 41.980469 33.726562 121.722656 18.667969 177.402344 C 13.132812 197.878906 19.335938 205.34375 38.59375 201.382812 C 55.160156 197.976562 84.183594 182.449219 102.800781 167.027344 L 107.644531 163.015625 L 107.644531 98.453125 L 131.867188 98.492188 C 152.683594 98.527344 156.78125 98.714844 160.988281 99.8125 L 165.886719 101.089844 L 167.574219 98.875 C 178.964844 83.90625 191.167969 57.464844 192.945312 43.90625 C 195.097656 27.519531 187.703125 22.664062 168.292969 27.710938 M 440.667969 96.769531 C 426.191406 98.6875 415.933594 104.960938 411.054688 114.871094 C 407.890625 121.292969 407.621094 132.445312 410.484375 138.265625 C 415.242188 147.933594 423.261719 152.246094 445.035156 156.84375 C 459.089844 159.8125 464.355469 163.035156 464.351562 168.664062 C 464.335938 181.757812 437.09375 183.628906 430.640625 170.980469 C 429.839844 169.410156 429.183594 167.308594 429.183594 166.304688 L 429.183594 164.484375 L 406.21875 164.484375 L 406.21875 166.601562 C 406.21875 186.027344 422.226562 198.339844 447.484375 198.339844 C 473.351562 198.339844 487.679688 187.308594 487.679688 167.390625 C 487.679688 150.71875 479.804688 143.8125 454.414062 138.226562 C 435.414062 134.046875 432.050781 132.199219 432.058594 125.953125 C 432.074219 112.546875 460.796875 112.609375 463.3125 126.019531 L 463.796875 128.597656 L 486.019531 128.597656 L 485.503906 124.84375 C 483.632812 111.234375 474.847656 101.867188 460.453125 98.132812 C 455.96875 96.96875 444.914062 96.207031 440.667969 96.769531 M 208.125 147.617188 L 208.125 196.78125 L 275.59375 196.78125 L 275.59375 176.683594 L 231.8125 176.683594 L 231.8125 98.453125 L 208.125 98.453125 L 208.125 147.617188 M 298.558594 132.507812 C 298.558594 169.195312 298.726562 171.261719 302.300781 178.621094 C 308.390625 191.160156 322.136719 198.300781 340.1875 198.300781 C 361.75 198.300781 376.617188 188.238281 380.710938 170.875 C 381.59375 167.117188 381.796875 160.074219 381.804688 132.363281 L 381.816406 98.453125 L 358.925781 98.453125 L 358.707031 131.648438 C 358.457031 169.246094 358.558594 168.546875 352.707031 173.699219 C 343.804688 181.535156 329.03125 178.925781 323.476562 168.53125 C 321.90625 165.601562 321.882812 165.070312 321.671875 132.003906 L 321.460938 98.453125 L 298.558594 98.453125 L 298.558594 132.507812 M 553.351562 147.617188 L 553.351562 196.78125 L 579.007812 196.769531 C 607.417969 196.757812 610.445312 196.414062 618.101562 192.332031 C 629.449219 186.285156 634.734375 172.324219 630.375 159.917969 C 627.96875 153.078125 618.917969 145.820312 612.792969 145.820312 C 610.609375 145.820312 611.324219 144.730469 614.175781 143.714844 C 629.347656 138.292969 633.414062 117.523438 621.421875 106.691406 C 613.421875 99.464844 608.050781 98.453125 577.65625 98.453125 L 553.351562 98.453125 L 553.351562 147.617188 M 576.476562 127.289062 L 576.675781 138.285156 L 586.746094 138.265625 C 598.078125 138.238281 600.523438 137.457031 603.109375 133.027344 C 604.953125 129.871094 604.945312 124.046875 603.089844 121.566406 C 599.78125 117.132812 598.640625 116.773438 587.015625 116.523438 L 576.277344 116.292969 L 576.476562 127.289062 M 131.351562 129.851562 L 131.375 141.875 L 136.554688 136.492188 C 139.40625 133.53125 144.128906 128.386719 147.050781 125.058594 C 153.433594 117.789062 153.582031 117.953125 140.480469 117.882812 L 131.328125 117.832031 L 131.351562 129.851562 M 154.054688 137.257812 C 147.484375 144.632812 147.183594 145.101562 149.066406 145.089844 C 154.164062 145.046875 160.003906 140.386719 161.441406 135.214844 C 163.492188 127.828125 162.117188 128.210938 154.054688 137.257812 M 576.316406 167.402344 L 576.316406 178.9375 L 587.621094 178.707031 C 603.1875 178.390625 607.457031 175.949219 607.457031 167.351562 C 607.457031 158.558594 602.734375 155.871094 587.289062 155.871094 L 576.316406 155.871094 L 576.316406 167.402344 " fill-opacity="1" fill-rule="evenodd"/><g clip-path="url(#059cf34326)"><path stroke-linecap="butt" transform="matrix(0.717721, 0, 0, 0.717721, -100.494096, -282.657904)" fill="none" stroke-linejoin="miter" d="M 382.473892 412.043025 C 310.751691 421.420575 194.367753 524.491984 156.694277 611.99764 C 118.705132 700.227159 177.78424 721.839608 275.249801 655.374931 C 282.809532 650.220816 289.226323 645.997381 289.498452 645.997381 C 289.776023 645.997381 289.999168 650.950121 289.999168 657.00226 L 289.999168 668.001696 L 322.997476 668.001696 L 322.997476 624.270638 L 340.250426 623.726381 C 358.776938 623.138583 365.166516 621.935775 374.767211 617.244279 C 399.226125 605.281508 405.577606 571.205571 387.872922 546.915377 C 386.931357 545.625487 387.638892 543.949175 391.677279 537.913364 C 436.730882 470.599646 439.914786 417.893789 399.285993 412.021255 C 391.715377 410.927298 390.996958 410.927298 382.473892 412.043025 M 374.500525 432.441781 C 298.065058 452.31805 187.009397 563.422694 166.028286 641.001101 C 158.316163 669.531058 166.958966 679.931811 193.790841 674.413044 C 216.872784 669.667122 257.311087 648.032903 283.25038 626.545633 L 289.999168 620.956112 L 289.999168 531.001299 L 323.748551 531.055725 C 352.752012 531.104708 358.461269 531.365951 364.322917 532.895314 L 371.147901 534.675034 L 373.499092 531.589097 C 389.369629 510.733165 406.372221 473.892402 408.848591 455.001238 C 411.847447 432.169653 401.54466 425.404537 374.500525 432.436339 M 754.000115 528.655551 C 733.829947 531.327853 719.537755 540.068622 712.739984 553.876425 C 708.331501 562.824012 707.955964 578.362552 711.945369 586.471982 C 718.57442 599.942346 729.748018 605.950944 760.084909 612.35685 C 779.667279 616.493204 787.003865 620.983325 786.998422 628.82607 C 786.976652 647.069568 749.020162 649.676559 740.029035 632.053514 C 738.913308 629.865601 737.998956 626.937498 737.998956 625.538757 L 737.998956 623.002519 L 706.002081 623.002519 L 706.002081 625.952392 C 706.002081 653.018298 728.305737 670.173282 763.497401 670.173282 C 799.538106 670.173282 819.501456 654.803461 819.501456 627.051792 C 819.501456 603.822899 808.529233 594.200433 773.152522 586.417557 C 746.679857 580.594006 741.993803 578.01967 742.004688 569.316999 C 742.026458 550.638095 782.045683 550.725176 785.550699 569.409522 L 786.225577 573.001619 L 817.188364 573.001619 L 816.469944 567.771309 C 813.862953 548.809391 801.622611 535.758106 781.566737 530.555008 C 775.318665 528.933122 759.916189 527.871821 754.000115 528.655551 M 429.998421 599.501497 L 429.998421 668.001696 L 524.002507 668.001696 L 524.002507 639.999668 L 463.002172 639.999668 L 463.002172 531.001299 L 429.998421 531.001299 L 429.998421 599.501497 M 555.999382 578.449633 C 555.999382 629.566259 556.233413 632.44538 561.213365 642.699183 C 569.698333 660.169836 588.850741 670.118856 614.000861 670.118856 C 644.043853 670.118856 664.758278 656.098793 670.462093 631.906565 C 671.692114 626.670812 671.975127 616.857856 671.986012 578.248258 L 672.00234 531.001299 L 640.108874 531.001299 L 639.80409 577.252267 C 639.455766 629.637013 639.597273 628.662793 631.444301 635.841544 C 619.040682 646.759341 598.456878 643.123704 590.717543 628.641022 C 588.529629 624.559094 588.496974 623.818905 588.203075 577.747541 L 587.909176 531.001299 L 555.999382 531.001299 L 555.999382 578.449633 M 911.00196 599.501497 L 911.00196 668.001696 L 946.748766 667.985368 C 986.332585 667.96904 990.550577 667.490094 1001.218016 661.802607 C 1017.028685 653.377508 1024.392483 633.925759 1018.318574 616.640153 C 1014.965951 607.110212 1002.355514 596.997915 993.821562 596.997915 C 990.779165 596.997915 991.775156 595.479437 995.748232 594.064369 C 1016.887178 586.51008 1022.552894 557.571931 1005.844202 542.479681 C 994.697816 532.410925 987.214281 531.001299 944.865636 531.001299 L 911.00196 531.001299 L 911.00196 599.501497 M 943.22198 571.178358 L 943.499551 586.499195 L 957.530499 586.471982 C 973.319397 586.433884 976.726447 585.34537 980.329429 579.173495 C 982.898322 574.775897 982.887437 566.661024 980.302216 563.204991 C 975.692358 557.027673 974.103128 556.526957 957.906036 556.178632 L 942.944409 555.857521 L 943.22198 571.178358 M 323.030131 574.748685 L 323.062787 591.500918 L 330.279636 584.001055 C 334.252713 579.875586 340.832781 572.70772 344.903824 568.07065 C 353.796985 557.942025 354.003803 558.170613 335.74942 558.072647 L 322.997476 558.001894 L 323.030131 574.748685 M 354.662354 585.067799 C 345.50795 595.343373 345.088872 595.996482 347.712191 595.980154 C 354.814746 595.920286 362.95139 589.427298 364.954256 582.221335 C 367.811605 571.929433 365.89582 572.462805 354.662354 585.067799 M 942.998834 627.068119 L 942.998834 643.140031 L 958.749635 642.81892 C 980.43828 642.378072 986.38701 638.976465 986.38701 626.997366 C 986.38701 614.746139 979.806942 611.00165 958.287016 611.00165 L 942.998834 611.00165 L 942.998834 627.068119 " stroke="#648c9c" stroke-width="1" stroke-opacity="1" stroke-miterlimit="4"/></g><path stroke-linecap="butt" transform="matrix(0.717721, 0, 0, 0.717721, -100.494096, -282.657904)" fill-opacity="1" fill="#4c4c4c" fill-rule="evenodd" stroke-linejoin="miter" d="M 744.916464 530.522353 C 721.611375 536.182627 707.857998 552.711715 709.229526 573.420697 C 710.590168 593.988173 722.634578 603.703162 755.975768 611.126829 C 781.147659 616.732677 787.270551 620.281233 787.270551 629.25059 C 787.270551 638.502961 779.11758 643.499241 763.998117 643.499241 C 749.961727 643.499241 740.410015 638.170964 738.423476 629.234263 C 736.921327 622.490917 738.32551 623.002519 721.339246 623.002519 L 705.811591 623.002519 L 706.475585 628.249157 C 709.947945 655.85932 729.258187 669.999119 763.497401 669.999119 C 800.506884 669.999119 822.609164 651.167824 819.512341 622.273214 C 817.362526 602.184685 805.900471 593.841224 769.500557 585.878742 C 746.9411 580.94233 741.999246 577.954359 741.999246 569.246245 C 741.999246 555.226182 768.357617 549.424402 780.336716 560.804818 C 783.71111 564.005049 786.002432 568.108748 786.002432 570.94977 C 786.002432 572.925423 786.541246 573.001619 801.437563 573.001619 L 816.872695 573.001619 L 816.350208 569.251688 C 813.443875 548.548148 801.323269 535.355356 780.761236 530.506025 C 772.918491 528.655551 752.557833 528.666436 744.916464 530.522353 M 289.999168 599.501497 L 289.999168 668.001696 L 322.997476 668.001696 L 322.997476 623.002519 L 339.787807 623.002519 C 363.533745 623.002519 373.858302 619.976449 384.520298 609.891365 C 405.474197 590.074964 400.619423 549.979544 375.741431 537.369107 C 364.573276 531.708833 358.673529 531.001299 322.839641 531.001299 L 289.999168 531.001299 L 289.999168 599.501497 M 429.998421 599.501497 L 429.998421 668.001696 L 524.002507 668.001696 L 524.002507 639.999668 L 463.002172 639.999668 L 463.002172 531.001299 L 429.998421 531.001299 L 429.998421 599.501497 M 556.01571 577.747541 C 556.03748 628.564826 556.407575 632.951539 561.550805 643.101933 C 578.830968 677.205083 643.047863 679.65424 663.990876 647.015142 C 671.327461 635.5803 671.381887 635.139452 671.779195 580.251124 L 672.132962 531.001299 L 640.076219 531.001299 L 639.787763 577.747541 C 639.466651 629.724094 639.695239 627.982471 632.353211 635.411581 C 622.806941 645.066702 604.552558 644.647624 594.745045 634.551654 C 588.088781 627.694015 588.0017 626.94294 588.0017 576.321588 L 588.0017 531.001299 L 555.999382 531.001299 L 556.01571 577.747541 M 911.00196 599.501497 L 911.00196 668.001696 L 945.747333 667.985368 C 983.360941 667.963598 989.745077 667.315932 999.514492 662.537354 C 1029.08398 648.071001 1025.67693 601.477151 994.746799 597.373452 C 989.26613 596.644148 989.478391 596.072678 996.16731 593.612636 C 1008.505619 589.078974 1014.497889 579.886472 1014.497889 565.501756 C 1014.497889 553.832884 1011.836472 547.426978 1004.527099 541.510904 C 992.977964 532.160567 986.392453 531.001299 944.838423 531.001299 L 911.00196 531.001299 L 911.00196 599.501497 M 942.998834 571.591993 L 942.998834 587.190402 L 957.247485 586.842077 C 972.726157 586.471982 976.089666 585.454222 980.220577 579.913684 C 985.211415 573.21388 982.566325 561.860676 975.126331 558.061762 C 971.604988 556.271156 969.248354 555.999028 957.040668 555.999028 L 942.998834 555.999028 L 942.998834 571.591993 M 322.997476 577.001909 L 322.997476 596.001924 L 337.186259 596.001924 C 349.59532 596.001924 351.913856 595.735238 355.750868 593.879322 C 367.044203 588.409538 369.30287 571.483142 359.805584 563.493448 C 354.248719 558.812837 350.776358 558.001894 336.375315 558.001894 L 322.997476 558.001894 L 322.997476 577.001909 M 942.998834 626.502092 L 942.998834 642.998525 L 958.248918 642.976754 C 978.451742 642.949542 984.754239 640.15206 986.582943 630.398973 C 989.26613 616.112224 979.937564 610.000217 955.451437 610.000217 L 942.998834 610.000217 L 942.998834 626.502092 " stroke="#4c4c4c" stroke-width="1" stroke-opacity="1" stroke-miterlimit="4"/></svg>